<svg width="33" height="34" viewBox="0 0 33 34" fill="none" xmlns="http://www.w3.org/2000/svg">
<path d="M27.2753 10.7681C26.2753 8.19663 25.8467 6.9109 24.4181 5.76802C22.9895 4.62515 21.2752 4.05371 19.2752 4.05371C17.2751 4.05371 15.5608 4.62515 13.8465 5.91088C12.1322 7.05376 11.1322 8.76807 10.7036 10.911H27.2753V10.7681Z" fill="#90DD05"/>
<path d="M19.7044 28.339C15.8472 28.339 12.5614 26.9104 9.70425 24.1961C6.84706 21.4818 5.56132 17.9103 5.56132 13.6245C5.56132 9.33873 6.98992 5.76724 9.70425 2.91006C9.8471 2.0529 9.41853 1.48146 9.13281 1.19574C8.56137 0.767164 7.84707 0.481445 7.13278 0.481445H0.704102V15.3388C0.704102 25.1961 8.70423 33.3391 18.7044 33.3391H31.4189L29.276 28.339C27.276 28.339 19.7044 28.339 19.7044 28.339Z" fill="#5231A6"/>
<path d="M10.7036 15.0557C10.9893 17.6271 11.8465 19.6272 13.5608 21.0558C15.1323 22.4844 16.9894 23.3415 19.1323 23.3415H30.8468C31.5611 23.3415 32.1325 23.3415 32.704 23.3415L29.1325 15.0557H10.7036Z" fill="#90DD05"/>
</svg>
